<svg width="30" height="46" viewBox="0 0 30 46" fill="none" xmlns="http://www.w3.org/2000/svg">
<path d="M7 36.6849C7 36.4894 7.15397 36.3288 7.34676 36.3288H29.1177C29.3145 36.3288 29.4684 36.4894 29.4684 36.6849V40.6465C29.4684 40.842 29.3145 41 29.1177 41H7.34676C7.15397 41 7 40.842 7 40.6465V36.6849Z" fill="#EE2A23"/>
<path fill-rule="evenodd" clip-rule="evenodd" d="M18.2369 6C20.6187 6 21.3671 7.70836 21.995 9.41405C22.2588 10.1384 28.4482 27.0881 28.6343 27.5969C28.6839 27.7388 28.6504 27.9717 28.4322 28.0561C28.3218 28.0978 27.4549 28.4343 26.597 28.7673C25.7477 29.097 24.9072 29.4232 24.8186 29.4565C24.6406 29.5248 24.4411 29.4257 24.3768 29.2476C24.3316 29.1291 23.7066 27.4013 23.2603 26.1671C23.0465 25.5761 22.8737 25.0982 22.8251 24.9647H13.6514C13.5447 25.2688 12.7821 27.3626 12.3648 28.5082C12.2162 28.9161 12.1114 29.2037 12.0956 29.2476C12.034 29.4177 11.8426 29.5328 11.6525 29.4565C11.5208 29.4046 9.93193 28.7888 8.90346 28.3902C8.44697 28.2133 8.10088 28.0791 8.04162 28.0561C7.85686 27.9838 7.77251 27.7736 7.83678 27.5969C7.93501 27.323 9.1264 24.0604 10.474 20.3701C12.2486 15.5103 14.2942 9.90869 14.4707 9.41405C15.0759 7.7338 15.8497 6 18.2369 6ZM15.1147 20.8464L18.2155 11.5348H18.2556L21.3671 20.8464H15.1147Z" fill="#EE2A23"/>
</svg>
