<svg width="27" height="28" viewBox="0 0 27 28" fill="none" xmlns="http://www.w3.org/2000/svg">
<path d="M23.7238 14.7782L24.345 12.4597C25.0702 9.75328 25.4328 8.40008 25.1597 7.22902C24.9441 6.30437 24.4592 5.46441 23.7662 4.81537C22.8886 3.99337 21.5354 3.63078 18.829 2.9056C16.1226 2.18042 14.7694 1.81783 13.5983 2.09088C12.6736 2.30648 11.8337 2.79143 11.1846 3.48441C10.4809 4.23583 10.1139 5.33586 9.5677 7.33534C9.47598 7.67115 9.3792 8.03234 9.27492 8.4215L9.27488 8.42165L8.65365 10.7401C7.92847 13.4465 7.56588 14.7997 7.83893 15.9708C8.05453 16.8955 8.53948 17.7354 9.23245 18.3845C10.1101 19.2065 11.4633 19.569 14.1697 20.2942C16.6091 20.9479 17.9491 21.3069 19.0473 21.1715C19.1675 21.1566 19.2848 21.1359 19.4004 21.1089C20.325 20.8933 21.165 20.4084 21.814 19.7154C22.636 18.8378 22.9986 17.4846 23.7238 14.7782L23.7238 14.7782Z" stroke="#0054FF" stroke-width="3"/>
<path opacity="0.5" d="M19.048 21.1711C18.7978 21.9373 18.3578 22.6305 17.7662 23.1846C16.8886 24.0066 15.5354 24.3692 12.829 25.0944C10.1226 25.8196 8.76936 26.1822 7.5983 25.9091C6.67365 25.6935 5.83369 25.2086 5.18465 24.5156C4.36265 23.6379 4.00006 22.2847 3.27488 19.5783L2.65365 17.2598C1.92847 14.5534 1.56588 13.2002 1.83893 12.0292C2.05453 11.1045 2.53948 10.2646 3.23245 9.61553C4.1101 8.79353 5.4633 8.43094 8.1697 7.70576C8.68172 7.56857 9.1453 7.44435 9.56838 7.33496" stroke="#0054FF" stroke-width="3"/>
</svg>
