<svg width="24" height="27" viewBox="0 0 24 27" fill="none" xmlns="http://www.w3.org/2000/svg">
<path d="M14.4574 16.7472H0.944602V13.3977H14.4062C15.5653 13.3977 16.5241 13.206 17.2827 12.8224C18.0412 12.4304 18.6037 11.8935 18.9702 11.2116C19.3366 10.5213 19.5199 9.72869 19.5199 8.83381C19.5199 7.94744 19.3366 7.15483 18.9702 6.45597C18.6037 5.7571 18.0455 5.20739 17.2955 4.80682C16.5455 4.39773 15.5994 4.19318 14.4574 4.19318H8.88352V27H4.94602V0.818181H14.4574C16.4432 0.818181 18.1009 1.17614 19.4304 1.89205C20.7685 2.60795 21.7699 3.57102 22.4347 4.78125C23.108 5.99148 23.4446 7.33807 23.4446 8.82102C23.4446 10.321 23.1037 11.6719 22.4219 12.8736C21.7486 14.0668 20.7429 15.0128 19.4048 15.7116C18.0753 16.402 16.4261 16.7472 14.4574 16.7472ZM14.6491 18.946V22.3082H0.944602V18.946H14.6491Z" fill="#0054FF"/>
</svg>
